<svg width="100" height="100" viewBox="0 0 100 100" fill="none" xmlns="http://www.w3.org/2000/svg">
<rect width="100" height="100" rx="10" fill="#7E7E7E"/>
<path d="M56.8216 62.2462H42.9666C38.2005 62.2462 35 59.0457 35 54.2796V45.9666C35 41.2005 38.2005 38 42.9666 38H56.8216C61.5877 38 64.7882 41.2005 64.7882 45.9666V54.2796C64.7882 59.0457 61.5877 62.2462 56.8216 62.2462ZM42.9666 40.0782C39.392 40.0782 37.0782 42.392 37.0782 45.9666V54.2796C37.0782 57.8542 39.392 60.168 42.9666 60.168H56.8216C60.3962 60.168 62.71 57.8542 62.71 54.2796V45.9666C62.71 42.392 60.3962 40.0782 56.8216 40.0782H42.9666Z" fill="#3A3A3A"/>
<path d="M47.9401 55.0142C47.5383 55.0142 47.1504 54.9172 46.804 54.7232C46.0004 54.266 45.5293 53.3377 45.5293 52.1878V48.0867C45.5293 46.9368 45.9865 46.0085 46.804 45.5513C47.6076 45.0941 48.6466 45.1772 49.6303 45.7729L53.0526 47.8235C53.9948 48.3915 54.535 49.2367 54.535 50.1372C54.535 51.0378 53.9948 51.883 53.0526 52.451L49.6303 54.5016C49.0623 54.8341 48.4805 55.0142 47.9401 55.0142ZM47.9401 47.3108C47.8847 47.3108 47.843 47.3247 47.8153 47.3385C47.7183 47.394 47.6075 47.6433 47.6075 48.0728V52.1739C47.6075 52.5896 47.7183 52.839 47.8153 52.9082C47.9261 52.9637 48.1895 52.9359 48.5498 52.7143L51.9718 50.6637C52.3182 50.4559 52.443 50.2481 52.443 50.1234C52.443 49.9987 52.3182 49.8047 51.9718 49.583L48.5498 47.5325C48.3004 47.3801 48.0787 47.3108 47.9401 47.3108Z" fill="#3A3A3A"/>
</svg>
